Coordinates
version=1
nRows=12
nColumns=24
inDegrees=yes

Units are S.I. units (second, meters, Newtons, ...)
Angles are in degrees.

endheader
time	pelvis_tilt	pelvis_list	pelvis_rotation	pelvis_tx	pelvis_ty	pelvis_tz	hip_flexion_r	hip_adduction_r	hip_rotation_r	knee_angle_r	ankle_angle_r	subtalar_angle_r	mtp_angle_r	hip_flexion_l	hip_adduction_l	hip_rotation_l	knee_angle_l	ankle_angle_l	subtalar_angle_l	mtp_angle_l	lumbar_extension	lumbar_bending	lumbar_rotation
      1.58350000	      2.12851343	      3.26427715	     -3.30302286	      0.44989359	      1.07122633	      0.30660520	     10.89771048	     -5.76814831	     -2.98393947	    -63.41248446	     -4.34523694	    -12.21171702	      7.67037318	      3.77031270	      8.91654131	     -2.06080375	     -6.24427397	      0.35569589	     -1.48837319	      2.42972517	      3.51166560	     -1.17759142	      0.02105517
      1.58766667	      2.17456218	      3.22225802	     -3.23626196	      0.45469506	      1.07185605	      0.30646445	     11.43934895	     -5.67911824	     -2.79390948	    -63.24808848	     -3.97153529	    -12.34640553	      7.58851775	      3.29106805	      8.90630778	     -1.87636474	     -5.97636008	      0.44179037	     -1.39481198	      2.39406078	      3.43733862	     -1.09086653	     -0.10879120
      1.59183333	      2.24898011	      3.14633178	     -3.08000660	      0.45949844	      1.07254502	      0.30634477	     11.90095758	     -5.54781900	     -2.68685716	    -63.01408838	     -3.32184270	    -12.55511518	      7.43729907	      2.79643182	      8.84665549	     -1.73346086	     -5.77060658	      0.61544767	     -1.35154657	      2.32471131	      3.33123980	     -1.04257621	     -0.31558028
      1.59600000	      2.29050548	      3.10337918	     -3.00930066	      0.46426653	      1.07311633	      0.30621614	     12.42624320	     -5.44897899	     -2.48924104	    -62.75875239	     -2.97931028	    -12.68157161	      7.35765256	      2.32132419	      8.83210873	     -1.54426306	     -5.49943169	      0.69628785	     -1.26466351	      2.28886507	      3.26114731	     -0.95908622	     -0.43838735
      1.60016667	      2.33021017	      3.04634105	     -2.89914796	      0.46904729	      1.07366808	      0.30612288	     12.92659543	     -5.32919900	     -2.33500322	    -62.45748931	     -2.48888773	    -12.86981253	      7.26544252	      1.85281111	      8.79210289	     -1.37177050	     -5.25068763	      0.82346615	     -1.21249653	      2.24643904	      3.20122900	     -0.88466420	     -0.57777015
      1.60433333	      2.36637568	      2.99588864	     -2.78287810	      0.47379755	      1.07417297	      0.30599267	     13.42165378	     -5.21995501	     -2.18703672	    -62.11829060	     -2.02184010	    -13.04038874	      7.16894833	      1.39070934	      8.75973788	     -1.20098985	     -5.00383213	      0.94699715	     -1.16593731	      2.20105084	      3.13484050	     -0.82718232	     -0.72131696
      1.60850000	      2.40003664	      2.94836850	     -2.66753655	      0.47854021	      1.07464522	      0.30588715	     13.90874492	     -5.11081631	     -2.03626893	    -61.73638845	     -1.58416664	    -13.20283540	      7.07435960	      0.92978994	      8.72798780	     -1.02763074	     -4.75156265	      1.06191189	     -1.12402098	      2.15586063	      3.07627326	     -0.77497006	     -0.86119445
      1.61266667	      2.42749612	      2.89783763	     -2.54784847	      0.48328072	      1.07507429	      0.30576753	     14.38910197	     -4.99801251	     -1.89186703	    -61.31262336	     -1.15171468	    -13.37056933	      6.97491674	      0.47450604	      8.69060664	     -0.85385816	     -4.49483561	      1.17746379	     -1.08967018	      2.10763213	      3.02414710	     -0.71539178	     -1.00573590
      1.61683333	      2.45382927	      2.85833775	     -2.43072396	      0.48800929	      1.07545946	      0.30565403	     14.86179489	     -4.89741739	     -1.74745606	    -60.85308022	     -0.73996696	    -13.53802931	      6.87354064	      0.02005022	      8.66318602	     -0.67846244	     -4.23827343	      1.28705444	     -1.06156872	      2.05780592	      2.96929206	     -0.67619820	     -1.14647042
      1.62100000	      2.46971655	      2.80865410	     -2.25417061	      0.49271747	      1.07581573	      0.30550992	     15.31779173	     -4.79244797	     -1.66706060	    -60.34589915	     -0.24120421	    -13.74193946	      6.68215075	     -0.41116466	      8.61688235	     -0.49853181	     -4.00679588	      1.43307253	     -1.09343642	      1.96014466	      2.90275906	     -0.64967306	     -1.37135296
      1.62516667	      2.46653884	      2.79392075	     -2.18719068	      0.49743151	      1.07605992	      0.30543244	     15.81745327	     -4.70919083	     -1.46763710	    -59.81828229	      0.01476917	    -13.86736054	      6.59393154	     -0.84253018	      8.61685441	     -0.31383828	     -3.71575399	      1.49076136	     -1.04102224	      1.91615462	      2.88981990	     -0.61188974	     -1.47230212
      1.62933333	      2.46476632	      2.77196429	     -2.08603958	      0.50214679	      1.07627687	      0.30535287	     16.29266367	     -4.62135392	     -1.31014072	    -59.25264376	      0.38439961	    -14.06747993	      6.49420873	     -1.26865364	      8.60131534	     -0.13703025	     -3.44374826	      1.59180284	     -1.02804359	      1.86610787	      2.88319234	     -0.57985789	     -1.58123892
